<svg width="34" height="34" viewBox="0 0 34 34" fill="none" xmlns="http://www.w3.org/2000/svg">
<path d="M28.9159 23.1116C29.3065 23.5021 29.9396 23.5021 30.3301 23.1116L32.4944 20.9473C32.8849 20.5568 32.8849 19.9236 32.4944 19.5331L27.6401 14.6788C27.2751 14.3138 26.6832 14.3138 26.3182 14.6788C25.9532 15.0439 25.3613 15.0439 24.9963 14.6788L24.6551 14.3377C24.2646 13.9471 24.2646 13.314 24.6551 12.9234L25.8847 11.6938C26.2753 11.3033 26.2753 10.6701 25.8847 10.2796L23.7205 8.11532C23.33 7.7248 22.6968 7.7248 22.3063 8.11532L21.0766 9.34497C20.6861 9.73549 20.0529 9.73549 19.6624 9.34497L19.3212 9.00378C18.9562 8.63874 18.9562 8.04689 19.3212 7.68185C19.6863 7.31681 19.6863 6.72496 19.3212 6.35992L14.467 1.50566C14.0764 1.11514 13.4433 1.11514 13.0528 1.50566L10.8885 3.66992C10.498 4.06044 10.498 4.69361 10.8885 5.08413L15.7428 9.93839C16.1078 10.3034 16.6996 10.3034 17.0647 9.93839C17.4297 9.57335 18.0216 9.57335 18.3866 9.93839L18.7278 10.2796C19.1183 10.6701 19.1183 11.3033 18.7278 11.6938L17.4982 12.9234C17.1076 13.314 17.1076 13.9471 17.4982 14.3377L19.6624 16.5019C20.0529 16.8924 20.6861 16.8924 21.0766 16.5019L22.3063 15.2723C22.6968 14.8817 23.33 14.8817 23.7205 15.2723L24.0617 15.6134C24.4267 15.9785 24.4267 16.5703 24.0617 16.9354C23.6966 17.3004 23.6966 17.8923 24.0617 18.2573L28.9159 23.1116ZM12.7577 5.08413C12.3672 4.69361 12.3672 4.06044 12.7577 3.66992L13.0528 3.37487C13.4433 2.98435 14.0764 2.98435 14.467 3.37487L17.4059 6.31378C17.7964 6.70431 17.7964 7.33747 17.4059 7.72799L17.1108 8.02304C16.7203 8.41356 16.0871 8.41356 15.6966 8.02304L12.7577 5.08413ZM19.3674 14.3377C18.9768 13.9471 18.9768 13.314 19.3674 12.9234L22.3063 9.98453C22.6968 9.59401 23.33 9.59401 23.7205 9.98453L24.0155 10.2796C24.4061 10.6701 24.4061 11.3033 24.0155 11.6938L21.0766 14.6327C20.6861 15.0232 20.0529 15.0232 19.6624 14.6327L19.3674 14.3377ZM30.6252 19.5331C31.0157 19.9236 31.0157 20.5568 30.6252 20.9473L30.3301 21.2424C29.9396 21.6329 29.3065 21.6329 28.9159 21.2424L25.977 18.3034C25.5865 17.9129 25.5865 17.2798 25.977 16.8892L26.2721 16.5942C26.6626 16.2037 27.2958 16.2037 27.6863 16.5942L30.6252 19.5331ZM21.0305 21.5614C21.0305 21.9267 20.7337 22.2252 20.3693 22.1987C18.1578 22.038 16.0686 21.088 14.4903 19.5097C12.9121 17.9315 11.962 15.8423 11.8013 13.6308C11.7748 13.2664 12.0733 12.9696 12.4387 12.9696C12.8034 12.9696 13.0964 13.2656 13.1271 13.6291C13.2843 15.4902 14.094 17.2447 15.4247 18.5754C16.7554 19.906 18.5098 20.7158 20.371 20.873C20.7345 20.9037 21.0305 21.1966 21.0305 21.5614ZM21.0305 26.8491C21.0305 27.2145 20.7339 27.5121 20.369 27.4951C16.7545 27.3268 13.3227 25.8169 10.7529 23.2472C8.18313 20.6774 6.67321 17.2456 6.50498 13.6311C6.48799 13.2662 6.7856 12.9696 7.15092 12.9696C7.51568 12.9696 7.80976 13.2653 7.82834 13.6296C7.99481 16.8939 9.365 19.9905 11.6873 22.3128C14.0095 24.6351 17.1061 26.0053 20.3705 26.1717C20.7348 26.1903 21.0305 26.4844 21.0305 26.8491ZM20.3703 31.4641C20.7348 31.4775 21.0305 31.7721 21.0305 32.1368C21.0305 32.5022 20.7339 32.7994 20.3688 32.7868C15.3519 32.6139 10.577 30.5453 7.01585 26.9842C3.45474 23.4231 1.38612 18.6481 1.21328 13.6313C1.2007 13.2662 1.49789 12.9696 1.86322 12.9696C2.22797 12.9696 2.52254 13.2653 2.53595 13.6298C2.70752 18.2966 4.6366 22.7362 7.95021 26.0499C11.2638 29.3635 15.7035 31.2925 20.3703 31.4641Z" fill="#00C472" stroke="#00C472" stroke-linejoin="round"/>
</svg>
