<?xml version="1.0" encoding="UTF-8"?>
<svg id="_Слой_2" data-name="Слой 2"
  xmlns="http://www.w3.org/2000/svg" viewBox="0 0 565.29 154.05">
  <defs>
    <style>
      .cls-1, .cls-2, .cls-3 {
        fill: #1b2539;
      }

      .cls-1, .cls-4 {
        stroke-width: 0px;
      }

      .cls-3, .cls-5 {
        letter-spacing: -.02em;
      }

      .cls-6 {
        font-family: Bahnschrift;
        font-size: 84.25px;
        font-variation-settings: 'wght' 400, 'wdth' 100;
      }

      .cls-4, .cls-7, .cls-5, .cls-8 {
        fill: #3a7cff;
      }

      .cls-9 {
        fill: none;
        stroke: #3a7cff;
        stroke-miterlimit: 10;
        stroke-width: 5px;
      }

      .cls-7 {
        letter-spacing: -.02em;
      }
    </style>
  </defs>
  <g id="_Слой_1-2" data-name="Слой 1">
    <path class="cls-1" d="M31,43.76l-8.19-6.15c-.9-.67-2.24-.44-3.06.53l-9.06,10.77c-.81.97-.82,2.31-.03,3.08l7.44,7.24c-2.58,4.66-4.49,9.75-5.58,15.13l-10.21.38c-1.12.04-2.02,1.07-2.04,2.34L0,91.13c-.03,1.26.82,2.31,1.92,2.42l10.34.94c1.12,6.36,3.37,12.34,6.54,17.72l-7.34,7.12c-.8.78-.79,2.15.05,3.11l9.21,10.63c.83.95,2.16,1.17,3.05.5l4.8-3.59v-13.12c-7.41-8.49-11.9-19.6-11.9-31.75,0-21.04,13.45-38.95,32.22-45.57l1.57-5.96c-7.22,2.02-13.81,5.53-19.45,10.17Z"/>
    <path class="cls-4" d="M83.62,33.59l1.57,5.96c18.77,6.63,32.22,24.53,32.22,45.57,0,12.15-4.49,23.26-11.9,31.75v13.12s4.8,3.59,4.8,3.59c.89.66,2.22.45,3.05-.5l9.21-10.63c.83-.96.85-2.32.05-3.11l-7.34-7.12c3.16-5.38,5.41-11.36,6.54-17.72l10.34-.94c1.11-.1,1.95-1.16,1.92-2.42l-.27-14.06c-.02-1.27-.92-2.29-2.04-2.34l-10.21-.38c-1.1-5.38-3-10.47-5.58-15.13l7.44-7.24c.79-.77.79-2.12-.03-3.08l-9.06-10.77c-.82-.97-2.16-1.2-3.06-.53l-8.19,6.15c-5.64-4.64-12.23-8.14-19.45-10.17Z"/>
    <rect class="cls-9" x="67.04" y="114.66" width="20.29" height="14.33"/>
    <line class="cls-9" x1="102.46" y1="140.13" x2="87.32" y2="140.13"/>
    <polygon class="cls-9" points="87.33 133.96 87.33 146.32 67.04 140.75 87.33 133.96"/>
    <line class="cls-9" x1="31.61" y1="140.13" x2="46.75" y2="140.13"/>
    <line class="cls-9" x1="46.75" y1="146.32" x2="31.61" y2="150.28"/>
    <line class="cls-9" x1="102.46" y1="150.28" x2="87.33" y2="146.32"/>
    <path class="cls-9" d="M66.03,95.95l-29.41,17.45c-.6.35-.35,1.26.35,1.26h9.78v14.33h-12.26v-14.5l15.25-57.95,16.33,9.54c.44.26.45.89.02,1.16l-22.05,13.97c-.43.28-.42.91.03,1.16l21.94,12.4c.45.26.46.91.01,1.17Z"/>
    <path class="cls-9" d="M67.04,28.85v85.81h-30.07c-.69,0-.94-.91-.35-1.26l29.41-17.45c.45-.26.44-.91-.01-1.17l-21.94-12.4c-.45-.25-.46-.89-.03-1.16l22.05-13.97c.43-.28.42-.91-.02-1.16l-16.33-9.54,4.74-17.99,12.55-9.71Z"/>
    <polygon class="cls-9" points="67.04 13.95 67.04 28.85 54.48 38.55 60.96 13.95 67.04 13.95"/>
    <rect class="cls-9" x="57.92" y="2.5" width="9.12" height="11.45"/>
    <polygon class="cls-9" points="67.04 140.75 46.75 146.32 46.75 133.96 67.04 140.75"/>
    <polygon class="cls-9" points="87.33 146.32 87.33 151.55 46.75 151.55 46.75 146.32 67.04 140.75 87.33 146.32"/>
    <path class="cls-9" d="M97.11,114.66h-30.07V28.85l12.55,9.71,4.74,17.98-16.33,9.54c-.44.26-.45.89-.02,1.16l22.05,13.97c.43.28.41.91-.03,1.16l-21.93,12.4c-.45.26-.46.91-.01,1.17l29.41,17.45c.6.35.35,1.26-.35,1.26Z"/>
    <polygon class="cls-9" points="79.59 38.56 67.04 28.85 67.04 13.95 73.11 13.95 79.59 38.56"/>
    <rect class="cls-9" x="67.04" y="2.5" width="9.12" height="11.45"/>
    <path class="cls-9" d="M99.58,114.49v14.5h-12.26v-14.33h9.78c.69,0,.94-.91.35-1.26l-29.41-17.45c-.45-.26-.44-.91.01-1.17l21.93-12.4c.45-.25.47-.89.03-1.16l-22.05-13.97c-.43-.28-.42-.91.02-1.16l16.33-9.54,15.25,57.95Z"/>
    <rect class="cls-9" x="46.75" y="114.66" width="20.29" height="14.33"/>
    <polygon class="cls-9" points="87.33 128.98 87.33 133.96 67.04 140.75 46.75 133.96 46.75 128.98 87.33 128.98"/>
    <text class="cls-6" transform="translate(142.45 118.01)">
      <tspan class="cls-2" x="0" y="0">RI</tspan>
      <tspan class="cls-3" x="78.12" y="0">G</tspan>
      <tspan class="cls-8" x="130.93" y="0">S</tspan>
      <tspan class="cls-7" x="182.81" y="0">T</tspan>
      <tspan class="cls-5" x="221.31" y="0">A</tspan>
      <tspan class="cls-8" x="274.21" y="0">T</tspan>
      <tspan class="cls-5" x="314.77" y="0">U</tspan>
      <tspan class="cls-8" x="368.33" y="0">S</tspan>
    </text>
  </g>
</svg>
