<svg width="279" height="77" viewBox="0 0 279 77" fill="none" xmlns="http://www.w3.org/2000/svg">
<path d="M15.4646 21.873L11.379 18.799C10.93 18.4641 10.2615 18.5791 9.85248 19.0639L5.33282 24.4472C4.92875 24.932 4.92376 25.6018 5.31786 25.9867L9.02937 29.6055C7.74231 31.9347 6.78949 34.4789 6.24573 37.168L1.15238 37.358C0.59366 37.378 0.144687 37.8928 0.13471 38.5276L1.80075e-05 45.5503C-0.0149478 46.1801 0.409082 46.705 0.957827 46.7599L6.11603 47.2298C6.67475 50.4087 7.79718 53.3978 9.37857 56.0869L5.71694 59.6458C5.31786 60.0356 5.32284 60.7204 5.74189 61.2002L10.3364 66.5135C10.7504 66.9884 11.4139 67.0983 11.8579 66.7634L14.2524 64.969V58.4112C10.5559 54.1675 8.316 48.6143 8.316 42.5413C8.316 32.0247 15.0257 23.0726 24.3892 19.7637L25.1724 16.7847C21.5707 17.7943 18.2832 19.5488 15.4696 21.868L15.4646 21.873Z" fill="#1B2539"/>
<path d="M41.7146 16.7896L42.4978 19.7686C51.8614 23.0825 58.571 32.0296 58.571 42.5462C58.571 48.6192 56.3312 54.1724 52.6346 58.416V64.9739L55.0291 66.7683C55.4731 67.0982 56.1366 66.9932 56.5507 66.5184L61.1452 61.2051C61.5592 60.7253 61.5692 60.0455 61.1701 59.6506L57.5085 56.0918C59.0849 53.4027 60.2073 50.4136 60.771 47.2347L65.9292 46.7648C66.483 46.7148 66.902 46.185 66.887 45.5552L66.7523 38.5275C66.7424 37.8927 66.2934 37.3829 65.7347 37.3579L60.6413 37.1679C60.0926 34.4788 59.1447 31.9346 57.8577 29.6054L61.5692 25.9866C61.9633 25.6017 61.9633 24.9269 61.5542 24.4471L57.0346 19.0638C56.6255 18.579 55.957 18.464 55.508 18.7989L51.4224 21.8729C48.6088 19.5537 45.3213 17.8042 41.7196 16.7896H41.7146Z" fill="#3A7CFF"/>
<path fill-rule="evenodd" clip-rule="evenodd" d="M32.1963 56.062H44.8124V65.7239H32.1963V56.062ZM34.6906 58.5612V63.2247H42.3181V58.5612H34.6906Z" fill="#3A7CFF"/>
<path fill-rule="evenodd" clip-rule="evenodd" d="M43.5603 68.7925H51.113V71.2917H43.5603V68.7925Z" fill="#3A7CFF"/>
<path fill-rule="evenodd" clip-rule="evenodd" d="M44.8126 65.2222V74.7749L29.1616 70.47L44.8126 65.2222ZM37.7255 70.2339L42.3183 71.4972V68.6939L37.7255 70.2339Z" fill="#3A7CFF"/>
<path fill-rule="evenodd" clip-rule="evenodd" d="M23.3216 71.2917H15.7689V68.7925H23.3216V71.2917Z" fill="#3A7CFF"/>
<path fill-rule="evenodd" clip-rule="evenodd" d="M15.4534 73.9066L23.0061 71.9272L23.6373 74.3451L16.0845 76.3245L15.4534 73.9066Z" fill="#3A7CFF"/>
<path fill-rule="evenodd" clip-rule="evenodd" d="M43.8811 71.9272L51.4288 73.9066L50.7972 76.3243L43.2495 74.345L43.8811 71.9272Z" fill="#3A7CFF"/>
<path fill-rule="evenodd" clip-rule="evenodd" d="M24.0249 26.3521L33.5941 31.9533C34.6079 32.5536 34.6471 34.0266 33.6353 34.6657C33.6344 34.6662 33.6336 34.6667 33.6328 34.6672L23.9207 40.8325L33.5485 46.2845L33.5536 46.2875C34.0504 46.5751 34.3222 47.0827 34.3461 47.6009L34.9573 48.2128L21.7548 56.0617H24.5688V65.7235H15.9585V57.0646L24.0249 26.3521ZM19.1591 54.6989L30.922 47.7058L30.9034 47.6871L30.9293 47.6721L22.2896 42.7795L19.1591 54.6989ZM23.5094 38.135L25.6016 30.1693L31.0415 33.3536L23.5094 38.135ZM32.3064 32.5507L32.3021 32.5534ZM18.4528 58.5609H22.0745V63.2243H18.4528V58.5609Z" fill="#3A7CFF"/>
<path fill-rule="evenodd" clip-rule="evenodd" d="M34.6907 11.8735V58.561H18.4428C16.8433 58.561 16.2358 56.4367 17.6319 55.6069L30.9528 47.6876L21.3841 42.269C21.3823 42.268 21.3806 42.267 21.3788 42.266C20.3182 41.6707 20.308 40.1727 21.3088 39.5403C21.3097 39.5397 21.3106 39.5391 21.3116 39.5385L31.0465 33.3587L23.3708 28.8657L26.0848 18.545L34.6907 11.8735ZM32.1964 35.5874L23.9257 40.8376L32.1964 45.5211V35.5874ZM32.1964 49.8543V56.0618H21.7549L32.1964 49.8543ZM18.9046 57.7562L18.9066 57.7551C18.9059 57.7555 18.9053 57.7558 18.9046 57.7562ZM22.638 41.6551L22.6422 41.6524C22.6408 41.6533 22.6394 41.6542 22.638 41.6551ZM32.1964 31.1374L26.2657 27.6659L28.2809 20.0024L32.1964 16.9671V31.1374Z" fill="#3A7CFF"/>
<path fill-rule="evenodd" clip-rule="evenodd" d="M29.4493 5.72314H34.6907V15.0341L25.0377 22.5037L29.4493 5.72314ZM31.3716 8.22233L29.318 16.0338L32.1964 13.8065V8.22233H31.3716Z" fill="#3A7CFF"/>
<path fill-rule="evenodd" clip-rule="evenodd" d="M27.6467 0H34.6906V8.22233H27.6467V0ZM30.141 2.49919V5.72314H32.1963V2.49919H30.141Z" fill="#3A7CFF"/>
<path fill-rule="evenodd" clip-rule="evenodd" d="M22.0745 65.2222L37.7254 70.47L22.0745 74.7749V65.2222ZM24.5688 68.6939V71.4972L29.1615 70.2339L24.5688 68.6939Z" fill="#3A7CFF"/>
<path fill-rule="evenodd" clip-rule="evenodd" d="M33.4435 69.0562L44.8125 72.1833V76.9998H22.0745V72.1833L33.4435 69.0562ZM24.5688 74.0889V74.5006H42.3182V74.0889L33.4435 71.6478L24.5688 74.0889Z" fill="#3A7CFF"/>
<path fill-rule="evenodd" clip-rule="evenodd" d="M32.1963 11.8735L40.8021 18.545L43.5163 28.8607L35.8404 33.3537L45.5862 39.5404L45.5927 39.5446C46.584 40.1914 46.5517 41.667 45.5133 42.2581L45.5111 42.2594L35.9389 47.6824L49.2521 55.5972C49.2537 55.5981 49.2553 55.5991 49.2569 55.6C50.4661 56.3115 50.1815 57.9457 49.0985 58.4229L48.9607 58.561H32.1963V11.8735ZM34.6906 45.5186L42.9615 40.8328L34.6906 35.5824V45.5186ZM34.6906 31.1324V16.9671L38.6061 20.0025L40.6211 27.6609L34.6906 31.1324ZM34.6906 49.8463L45.1455 56.0618H34.6906V49.8463Z" fill="#3A7CFF"/>
<path fill-rule="evenodd" clip-rule="evenodd" d="M32.1963 5.72314H37.4328L41.8451 22.5135L32.1963 15.0334V5.72314ZM34.6906 8.22233V13.8072L37.5631 16.034L35.5102 8.22233H34.6906Z" fill="#3A7CFF"/>
<path fill-rule="evenodd" clip-rule="evenodd" d="M32.1963 0H39.2402V8.22233H32.1963V0ZM34.6906 2.49919V5.72314H36.7459V2.49919H34.6906Z" fill="#3A7CFF"/>
<path fill-rule="evenodd" clip-rule="evenodd" d="M42.8472 26.3569L50.4818 55.4256L50.9236 55.2043V65.7234H42.3133V56.0616H45.1272L33.3102 49.0364C32.2318 48.4042 32.3023 46.8835 33.3235 46.2924L33.3285 46.2895L42.9516 40.8375L33.2285 34.6652L33.222 34.661C32.2633 34.0355 32.2273 32.5641 33.2879 31.9524L42.8472 26.3569ZM44.5825 42.7846L35.929 47.6872L47.7096 54.6908L44.5825 42.7846ZM48.4293 58.5607H44.8076V63.2242H48.4293V58.5607ZM43.3626 38.1399L35.8305 33.3585L41.2705 30.1742L43.3626 38.1399Z" fill="#3A7CFF"/>
<path fill-rule="evenodd" clip-rule="evenodd" d="M22.0745 56.062H34.6906V65.7239H22.0745V56.062ZM24.5688 58.5612V63.2247H32.1963V58.5612H24.5688Z" fill="#3A7CFF"/>
<path fill-rule="evenodd" clip-rule="evenodd" d="M22.0745 63.2192H44.8125V67.8576L33.4435 71.6696L22.0745 67.8576V63.2192ZM24.5688 65.7184V66.0585L33.4435 69.0342L42.3182 66.0585V65.7184H24.5688Z" fill="#3A7CFF"/>
<path d="M267.519 57.5143C266.068 57.5143 264.7 57.3772 263.414 57.103C262.142 56.8289 260.945 56.4176 259.823 55.8693C258.715 55.321 257.675 54.6356 256.704 53.8131L259.31 50.6054C260.445 51.5924 261.697 52.3326 263.065 52.8261C264.434 53.3196 265.918 53.5663 267.519 53.5663C269.68 53.5663 271.356 53.1619 272.547 52.3532C273.737 51.5444 274.332 50.4135 274.332 48.9604V48.9398C274.332 47.8021 274.031 46.9316 273.429 46.3284C272.827 45.7253 272.033 45.2798 271.048 44.9919C270.077 44.6903 269.01 44.4436 267.847 44.2517C266.725 44.0597 265.59 43.8336 264.44 43.5731C263.305 43.3127 262.258 42.9083 261.301 42.3599C260.343 41.7979 259.57 40.996 258.982 39.9542C258.407 38.9124 258.12 37.521 258.12 35.78V35.7595C258.12 32.9767 259.043 30.8246 260.89 29.303C262.737 27.7677 265.343 27 268.709 27C270.31 27 271.876 27.2605 273.408 27.7814C274.941 28.2886 276.432 29.0699 277.882 30.1254L275.502 33.4565C274.366 32.6066 273.231 31.976 272.095 31.5648C270.973 31.1536 269.844 30.9479 268.709 30.9479C266.67 30.9479 265.083 31.3592 263.948 32.1817C262.826 32.9904 262.265 34.1419 262.265 35.6361V35.6567C262.265 36.7807 262.593 37.6375 263.25 38.2269C263.907 38.8164 264.762 39.2551 265.815 39.5429C266.882 39.8171 268.025 40.0775 269.243 40.3243C270.337 40.5436 271.432 40.8109 272.526 41.1262C273.621 41.4278 274.612 41.8733 275.502 42.4628C276.405 43.0385 277.123 43.8336 277.656 44.848C278.204 45.8624 278.477 47.1852 278.477 48.8165V48.8576C278.477 51.6129 277.52 53.7445 275.604 55.2524C273.689 56.7603 270.994 57.5143 267.519 57.5143Z" fill="#3A7CFF"/>
<path d="M241.887 57.5144C238.562 57.5144 235.983 56.548 234.15 54.6152C232.33 52.6686 231.421 49.927 231.421 46.3903V27.3086H235.607V46.5342C235.607 48.7138 236.154 50.3999 237.249 51.5925C238.343 52.7851 239.889 53.3814 241.887 53.3814C243.898 53.3814 245.451 52.7851 246.545 51.5925C247.653 50.3999 248.208 48.7138 248.208 46.5342V27.3086H252.394V46.3903C252.394 49.927 251.477 52.6686 249.644 54.6152C247.811 56.548 245.225 57.5144 241.887 57.5144Z" fill="#3A7CFF"/>
<path d="M215.927 57.206V29.7555H220.113V57.206H215.927ZM207.492 31.2977V27.3086H228.548V31.2977H207.492Z" fill="#3A7CFF"/>
<path d="M182.332 57.206L193.332 27.3086H196.903L207.902 57.206H203.388L195.117 33.0866L186.847 57.206H182.332ZM187.401 50.6467V46.6576H203.1V50.6467H187.401Z" fill="#3A7CFF"/>
<path d="M170.327 57.206V29.7555H174.513V57.206H170.327ZM161.892 31.2977V27.3086H182.948V31.2977H161.892Z" fill="#3A7CFF"/>
<path d="M149.066 57.5143C147.616 57.5143 146.248 57.3772 144.962 57.103C143.689 56.8289 142.492 56.4176 141.37 55.8693C140.262 55.321 139.222 54.6356 138.251 53.8131L140.857 50.6054C141.993 51.5924 143.245 52.3326 144.613 52.8261C145.981 53.3196 147.465 53.5663 149.066 53.5663C151.228 53.5663 152.904 53.1619 154.094 52.3532C155.284 51.5444 155.879 50.4135 155.879 48.9604V48.9398C155.879 47.8021 155.578 46.9316 154.976 46.3284C154.374 45.7253 153.581 45.2798 152.596 44.9919C151.625 44.6903 150.557 44.4436 149.394 44.2517C148.273 44.0597 147.137 43.8336 145.988 43.5731C144.852 43.3127 143.806 42.9083 142.848 42.3599C141.89 41.7979 141.117 40.996 140.529 39.9542C139.954 38.9124 139.667 37.521 139.667 35.78V35.7595C139.667 32.9767 140.591 30.8246 142.438 29.303C144.285 27.7677 146.891 27 150.256 27C151.857 27 153.424 27.2605 154.956 27.7814C156.488 28.2886 157.979 29.0699 159.43 30.1254L157.049 33.4565C155.914 32.6066 154.778 31.976 153.643 31.5648C152.521 31.1536 151.392 30.9479 150.256 30.9479C148.218 30.9479 146.631 31.3592 145.495 32.1817C144.373 32.9904 143.813 34.1419 143.813 35.6361V35.6567C143.813 36.7807 144.141 37.6375 144.798 38.2269C145.454 38.8164 146.309 39.2551 147.363 39.5429C148.43 39.8171 149.572 40.0775 150.79 40.3243C151.884 40.5436 152.979 40.8109 154.073 41.1262C155.168 41.4278 156.16 41.8733 157.049 42.4628C157.952 43.0385 158.67 43.8336 159.204 44.848C159.751 45.8624 160.025 47.1852 160.025 48.8165V48.8576C160.025 51.6129 159.067 53.7445 157.152 55.2524C155.236 56.7603 152.541 57.5143 149.066 57.5143Z" fill="#3A7CFF"/>
<path d="M123.804 41.1056H134.147V46.3284C134.147 48.5766 133.709 50.5437 132.833 52.2298C131.971 53.9022 130.761 55.2044 129.201 56.1366C127.641 57.055 125.808 57.5143 123.701 57.5143C121.581 57.5143 119.727 57.0825 118.14 56.2188C116.553 55.3415 115.321 54.1146 114.446 52.5382C113.57 50.9481 113.132 49.0975 113.132 46.9864V38.1653C113.132 35.9171 113.563 33.9569 114.425 32.2845C115.301 30.6121 116.518 29.3167 118.078 28.3982C119.638 27.4661 121.471 27 123.578 27C125.315 27 126.896 27.3701 128.319 28.1104C129.755 28.8506 130.959 29.8856 131.93 31.2152C132.902 32.5449 133.558 34.1008 133.9 35.8829H129.365C128.982 34.3338 128.236 33.1481 127.128 32.3256C126.02 31.5031 124.837 31.0919 123.578 31.0919C121.717 31.0919 120.226 31.743 119.104 33.0453C117.982 34.3338 117.421 36.0405 117.421 38.1653V46.9864C117.421 48.933 117.996 50.4957 119.145 51.6746C120.294 52.8398 121.813 53.4224 123.701 53.4224C125.562 53.4224 127.053 52.8055 128.175 51.5718C129.297 50.3381 129.858 48.6177 129.858 46.4107V45.1153H123.804V41.1056Z" fill="#1B2539"/>
<path d="M106.36 27.3086V57.206H102.174V27.3086H106.36Z" fill="#1B2539"/>
<path d="M76.5828 44.5603V40.5712H86.7617C87.9793 40.5712 88.9575 40.1463 89.6963 39.2964C90.4351 38.4465 90.8045 37.3224 90.8045 35.9242C90.8045 34.526 90.4351 33.4019 89.6963 32.552C88.9575 31.7021 87.9793 31.2771 86.7617 31.2771H76.5828V27.2881H86.5975C88.335 27.2881 89.8536 27.6514 91.1534 28.3779C92.4531 29.0907 93.4586 30.0914 94.1701 31.38C94.8952 32.6685 95.2577 34.1833 95.2577 35.9242C95.2577 37.6514 94.8952 39.1662 94.1701 40.4684C93.445 41.757 92.4326 42.7645 91.1328 43.4911C89.8468 44.2039 88.335 44.5603 86.5975 44.5603H76.5828ZM74.7563 57.206V27.2881H78.9428V57.206H74.7563ZM91.5433 57.206L84.7095 43.635L88.8754 42.6892L96.5096 57.206H91.5433Z" fill="#1B2539"/>
</svg>
