<svg width="51" height="59" viewBox="0 0 51 59" fill="none" xmlns="http://www.w3.org/2000/svg">
<path d="M11.6659 16.4834C11.6638 16.4856 11.6603 16.4858 11.6579 16.484L8.58116 14.1701C8.24259 13.9176 7.7385 14.0043 7.43003 14.3698L4.02175 18.4275C3.71704 18.793 3.71328 19.2978 4.01047 19.5879L6.53619 22.0495C6.69749 22.2067 6.73319 22.452 6.62796 22.6512C5.8086 24.2019 5.18412 25.8735 4.79206 27.6311C4.74178 27.8565 4.54757 28.0222 4.31678 28.0308L0.869287 28.1593C0.447955 28.1744 0.109385 28.5624 0.101861 29.0409L0.000289739 34.3344C-0.0109959 34.8091 0.308765 35.2048 0.722573 35.2462L4.23149 35.5657C4.4563 35.5861 4.63887 35.7549 4.6822 35.9764C5.09758 38.0999 5.8478 40.1061 6.87683 41.9362C6.98981 42.1371 6.9563 42.3896 6.79096 42.5503L4.31142 44.9591C4.01047 45.253 4.01423 45.7692 4.33023 46.1309L7.79493 50.1359C8.10717 50.4938 8.6075 50.5767 8.94231 50.3243L10.5478 49.1217C10.6738 49.0272 10.748 48.879 10.748 48.7215V44.2158C10.748 44.0951 10.7041 43.9786 10.6257 43.8867C7.91112 40.7066 6.27136 36.5766 6.27136 32.0663C6.27136 24.2328 11.2123 17.5509 18.1429 14.9874C18.2982 14.9299 18.4174 14.8013 18.4595 14.6411L18.7608 13.4959C18.8591 13.1222 18.5148 12.7851 18.1477 12.9057C15.7577 13.6909 13.5682 14.916 11.6659 16.4834V16.4834Z" fill="#1B2539"/>
<path d="M38.8716 16.4836C38.8737 16.4857 38.8771 16.486 38.8796 16.4841L41.9559 14.1701C42.2944 13.9177 42.7984 14.0044 43.1068 14.3698L46.5146 18.4277C46.8193 18.7932 46.823 19.2981 46.5259 19.5882L44.0005 22.0499C43.8392 22.2071 43.8036 22.4524 43.9087 22.6515C44.728 24.2023 45.3524 25.8741 45.7444 27.6317C45.7947 27.8571 45.9889 28.0228 46.2197 28.0314L49.6666 28.1599C50.0879 28.175 50.4264 28.5631 50.4339 29.0416L50.5355 34.3353C50.5468 34.8101 50.227 35.2057 49.8133 35.2471L46.305 35.5666C46.0802 35.5871 45.8976 35.7558 45.8543 35.9774C45.4389 38.101 44.6888 40.1073 43.6599 41.9374C43.547 42.1383 43.5805 42.3908 43.7458 42.5514L46.225 44.9605C46.5259 45.2544 46.5221 45.7705 46.2062 46.1323L42.742 50.1374C42.4298 50.4953 41.9295 50.5782 41.5948 50.3258L39.9895 49.1232C39.8635 49.0287 39.7893 48.8805 39.7893 48.723V44.2171C39.7893 44.0963 39.8332 43.9799 39.9116 43.888C42.6258 40.7077 44.2653 36.5776 44.2653 32.0671C44.2653 24.2333 39.3251 17.5511 32.3956 14.9875C32.2403 14.93 32.1211 14.8014 32.079 14.6412L31.7778 13.4959C31.6795 13.1222 32.0237 12.7852 32.3908 12.9058C34.7805 13.691 36.9696 14.9162 38.8716 16.4836V16.4836Z" fill="#3A7CFF"/>
<path fill-rule="evenodd" clip-rule="evenodd" d="M24.2795 42.7577C24.2795 42.4816 24.5034 42.2577 24.7795 42.2577H33.2934C33.5695 42.2577 33.7934 42.4816 33.7934 42.7577V49.0406C33.7934 49.3167 33.5695 49.5406 33.2934 49.5406H24.7795C24.5034 49.5406 24.2795 49.3167 24.2795 49.0406V42.7577ZM26.6605 44.1416C26.3843 44.1416 26.1605 44.3654 26.1605 44.6416V47.1568C26.1605 47.4329 26.3843 47.6568 26.6605 47.6568H31.4124C31.6886 47.6568 31.9124 47.4329 31.9124 47.1568V44.6416C31.9124 44.3654 31.6886 44.1416 31.4124 44.1416H26.6605Z" fill="#3A7CFF"/>
<path fill-rule="evenodd" clip-rule="evenodd" d="M32.849 52.3539C32.849 52.0777 33.0729 51.8539 33.349 51.8539H38.0445C38.3206 51.8539 38.5445 52.0777 38.5445 52.3539V53.2377C38.5445 53.5138 38.3206 53.7377 38.0445 53.7377H33.349C33.0729 53.7377 32.849 53.5138 32.849 53.2377V52.3539Z" fill="#3A7CFF"/>
<path fill-rule="evenodd" clip-rule="evenodd" d="M33.1346 49.3833C33.4585 49.2747 33.7934 49.5158 33.7934 49.8574V55.707C33.7934 56.0371 33.4792 56.2766 33.1609 56.1891L23.5728 53.553C23.0968 53.4221 23.0783 52.7537 23.5465 52.5968L33.1346 49.3833ZM30.0045 52.4189C29.5364 52.5758 29.5548 53.2442 30.0309 53.3751L31.28 53.7185C31.5983 53.806 31.9125 53.5665 31.9125 53.2364V52.4743C31.9125 52.1327 31.5775 51.8917 31.2536 52.0002L30.0045 52.4189Z" fill="#3A7CFF"/>
<path fill-rule="evenodd" clip-rule="evenodd" d="M17.587 53.2377C17.587 53.5138 17.3631 53.7377 17.087 53.7377H12.3915C12.1153 53.7377 11.8915 53.5138 11.8915 53.2377V52.3539C11.8915 52.0777 12.1153 51.8539 12.3915 51.8539H17.087C17.3631 51.8539 17.587 52.0777 17.587 52.3539V53.2377Z" fill="#3A7CFF"/>
<path fill-rule="evenodd" clip-rule="evenodd" d="M11.7799 56.1922C11.7102 55.9251 11.87 55.6521 12.137 55.5821L16.8651 54.3436C17.1324 54.2736 17.4058 54.4336 17.4756 54.7009L17.6989 55.5559C17.7686 55.8229 17.6088 56.0959 17.3418 56.1659L12.6137 57.4045C12.3464 57.4745 12.073 57.3144 12.0032 57.0471L11.7799 56.1922Z" fill="#3A7CFF"/>
<path fill-rule="evenodd" clip-rule="evenodd" d="M32.9645 54.7009C33.0343 54.4336 33.3078 54.2736 33.575 54.3436L38.2994 55.5821C38.5664 55.652 38.7262 55.9251 38.6564 56.1921L38.433 57.0471C38.3631 57.3144 38.0897 57.4744 37.8225 57.4043L33.098 56.1659C32.8311 56.0959 32.6713 55.8228 32.7411 55.5558L32.9645 54.7009Z" fill="#3A7CFF"/>
<path fill-rule="evenodd" clip-rule="evenodd" d="M17.95 20.5008C18.0341 20.1807 18.4004 20.0291 18.6861 20.1963L25.3335 24.0856C26.0981 24.5381 26.1276 25.6484 25.3646 26.1301L25.3627 26.1313L18.7428 30.3318C18.424 30.5341 18.4358 31.0032 18.7644 31.1891L25.2991 34.8881L25.303 34.8903C25.6295 35.0792 25.8271 35.3941 25.8844 35.7304C25.9008 35.8261 25.9387 35.9184 26.0073 35.9871V35.9871C26.1869 36.1669 26.1492 36.4677 25.9307 36.5976L17.8367 41.4074C17.4371 41.6448 17.6055 42.2578 18.0703 42.2578V42.2578C18.3228 42.2578 18.5276 42.4625 18.5276 42.7151V49.0406C18.5276 49.3168 18.3037 49.5406 18.0276 49.5406H13.0345C12.4823 49.5406 12.0345 49.0929 12.0345 48.5406V44.3056C12.0345 43.448 12.1449 42.5939 12.3628 41.7643L17.95 20.5008ZM14.7582 40.0502C14.6446 40.4828 15.1127 40.8356 15.4972 40.6071L23.31 35.9644C23.3143 35.9619 23.3151 35.9559 23.3115 35.9524L23.3113 35.9521C23.3078 35.9487 23.3086 35.9429 23.3128 35.9404V35.9404C23.3178 35.9376 23.3177 35.9304 23.3127 35.9276L17.3737 32.5659C17.0883 32.4043 16.7272 32.5567 16.6439 32.8739L14.7582 40.0502ZM18.8037 28.0631C18.42 28.3065 17.9368 27.9533 18.0523 27.5138L19.1389 23.3781C19.2231 23.058 19.5894 22.9065 19.875 23.0736L22.7006 24.7269C23.0238 24.9159 23.0321 25.38 22.716 25.5806L18.8037 28.0631ZM24.3625 24.5359L24.3593 24.5379ZM13.9155 44.6416C13.9155 44.3655 14.1393 44.1416 14.4155 44.1416H16.1466C16.4228 44.1416 16.6466 44.3655 16.6466 44.6416V47.1568C16.6466 47.4329 16.4228 47.6568 16.1466 47.6568H14.4155C14.1393 47.6568 13.9155 47.4329 13.9155 47.1568V44.6416Z" fill="#3A7CFF"/>
<path fill-rule="evenodd" clip-rule="evenodd" d="M25.3542 9.57462C25.6828 9.32002 26.1605 9.55419 26.1605 9.96984V43.6415C26.1605 43.9176 25.9366 44.1415 25.6605 44.1415H13.908C12.7018 44.1415 12.2437 42.5402 13.2965 41.9147L22.6007 36.3858C22.9308 36.1896 22.9258 35.71 22.5916 35.5208L16.126 31.861C16.1247 31.8603 16.1233 31.8596 16.122 31.8588C15.3222 31.4101 15.3145 30.281 16.0692 29.8043C16.0699 29.8038 16.0706 29.8034 16.0713 29.8029L22.7198 25.5842C23.036 25.3837 23.0276 24.9196 22.7045 24.7305L17.9518 21.9498C17.7581 21.8364 17.6637 21.608 17.7207 21.391L19.6276 14.1427C19.6556 14.0363 19.7179 13.9421 19.8049 13.8747L25.3542 9.57462ZM24.2795 27.7341C24.2795 27.3398 23.8446 27.1007 23.5117 27.3119L18.7466 30.3355C18.4278 30.5377 18.4396 31.0068 18.7682 31.1928L23.5332 33.89C23.8666 34.0787 24.2795 33.8379 24.2795 33.4549V27.7341ZM23.5241 38.0275C23.8574 37.8295 24.2795 38.0697 24.2795 38.4574V41.7577C24.2795 42.0338 24.0557 42.2577 23.7795 42.2577H18.2258C17.7175 42.2577 17.5334 41.5874 17.9703 41.3278L23.5241 38.0275ZM14.2562 43.5349L14.2577 43.534C14.2572 43.5343 14.2568 43.5346 14.2562 43.5349ZM17.0715 31.3983L17.0748 31.3963C17.0737 31.3969 17.0726 31.3976 17.0715 31.3983ZM24.2795 22.5985C24.2795 22.9847 23.8604 23.2251 23.527 23.0301L20.1349 21.0453C19.9412 20.932 19.8467 20.7036 19.9038 20.4866L21.2838 15.2412C21.3117 15.1348 21.3741 15.0406 21.461 14.9732L23.4733 13.414C23.8019 13.1594 24.2795 13.3935 24.2795 13.8092V22.5985Z" fill="#3A7CFF"/>
<path fill-rule="evenodd" clip-rule="evenodd" d="M22.1099 4.68654C22.1677 4.46685 22.3663 4.31372 22.5935 4.31372H25.6605C25.9367 4.31372 26.1605 4.53758 26.1605 4.81372V11.0867C26.1605 11.2415 26.0889 11.3875 25.9664 11.4822L20.0449 16.0623C19.6672 16.3545 19.134 16.0015 19.2554 15.5397L22.1099 4.68654ZM23.9284 6.19754C23.7688 6.19754 23.6293 6.30509 23.5888 6.45939L22.4832 10.6629C22.3617 11.1247 22.8949 11.4777 23.2727 11.1855L24.0855 10.5568C24.2079 10.4622 24.2796 10.3161 24.2796 10.1613V6.54872C24.2796 6.35476 24.1223 6.19754 23.9284 6.19754V6.19754Z" fill="#3A7CFF"/>
<path fill-rule="evenodd" clip-rule="evenodd" d="M20.8486 1C20.8486 0.447715 21.2963 0 21.8486 0H25.1604C25.7127 0 26.1604 0.447715 26.1604 0.999999V5.19775C26.1604 5.75004 25.7127 6.19775 25.1604 6.19775H21.8486C21.2963 6.19775 20.8486 5.75004 20.8486 5.19775V1ZM23.2296 1.88381C22.9534 1.88381 22.7296 2.10767 22.7296 2.38381V3.81394C22.7296 4.09008 22.9534 4.31394 23.2296 4.31394H23.7795C24.0556 4.31394 24.2795 4.09008 24.2795 3.81394V2.38381C24.2795 2.10767 24.0556 1.88381 23.7795 1.88381H23.2296Z" fill="#3A7CFF"/>
<path fill-rule="evenodd" clip-rule="evenodd" d="M16.6466 49.8574C16.6466 49.5158 16.9816 49.2747 17.3055 49.3833L26.8936 52.5968C27.3617 52.7537 27.3433 53.4221 26.8672 53.553L17.2792 56.1891C16.9609 56.2766 16.6466 56.0371 16.6466 55.707V49.8574ZM19.1864 52.0002C18.8625 51.8917 18.5276 52.1327 18.5276 52.4743V53.2364C18.5276 53.5665 18.8418 53.806 19.1601 53.7185L20.4092 53.3751C20.8853 53.2442 20.9037 52.5758 20.4355 52.4189L19.1864 52.0002Z" fill="#3A7CFF"/>
<path fill-rule="evenodd" clip-rule="evenodd" d="M25.0874 52.0891C25.1742 52.0653 25.2658 52.0653 25.3525 52.0891L33.4259 54.3088C33.6429 54.3685 33.7933 54.5658 33.7933 54.7909V57.5404C33.7933 57.8165 33.5695 58.0404 33.2933 58.0404H17.1466C16.8705 58.0404 16.6466 57.8165 16.6466 57.5404V54.7909C16.6466 54.5658 16.797 54.3685 17.0141 54.3088L25.0874 52.0891ZM18.657 55.8106C18.5805 55.8316 18.5276 55.9012 18.5276 55.9805V55.9805C18.5276 56.0777 18.6064 56.1566 18.7037 56.1566H31.7362C31.8335 56.1566 31.9124 56.0777 31.9124 55.9805V55.9805C31.9124 55.9012 31.8594 55.8316 31.7829 55.8106L25.3525 54.0427C25.2658 54.0188 25.1742 54.0188 25.0874 54.0427L18.657 55.8106Z" fill="#3A7CFF"/>
<path fill-rule="evenodd" clip-rule="evenodd" d="M24.2795 9.96985C24.2795 9.55419 24.7572 9.32002 25.0858 9.57462L30.6351 13.8747C30.7221 13.9421 30.7844 14.0363 30.8124 14.1427L32.7193 21.3871C32.7764 21.6042 32.682 21.8326 32.4883 21.946L27.7356 24.7267C27.4124 24.9158 27.4041 25.3799 27.7202 25.5805L34.3769 29.8043L34.3818 29.8075C35.1293 30.295 35.1049 31.4073 34.3219 31.8528L34.3202 31.8538L27.8517 35.5169C27.5176 35.7061 27.5126 36.1857 27.8427 36.3818L37.1413 41.9075C37.1425 41.9082 37.1437 41.9089 37.1449 41.9096C38.041 42.4366 37.8492 43.6354 37.0672 44.018C37.04 44.0313 37.0145 44.0484 36.9931 44.0698V44.0698C36.9473 44.1157 36.8852 44.1415 36.8203 44.1415H24.7795C24.5034 44.1415 24.2795 43.9176 24.2795 43.6415V9.96985ZM26.1605 33.4528C26.1605 33.8358 26.5736 34.0766 26.9069 33.8879L31.6723 31.1892C32.0008 31.0032 32.0126 30.5342 31.6938 30.3319L26.9284 27.3081C26.5955 27.0969 26.1605 27.336 26.1605 27.7303V33.4528ZM26.913 23.0263C26.5797 23.2213 26.1605 22.9809 26.1605 22.5948V13.8092C26.1605 13.3935 26.6382 13.1594 26.9667 13.414L28.9791 14.9733C29.066 15.0407 29.1283 15.1349 29.1564 15.2412L30.5361 20.4828C30.5932 20.6998 30.4987 20.9283 30.305 21.0417L26.913 23.0263ZM26.1605 38.4514C26.1605 38.0637 26.5826 37.8235 26.9159 38.0215L32.4798 41.3278C32.9167 41.5874 32.7326 42.2577 32.2244 42.2577H26.6605C26.3843 42.2577 26.1605 42.0338 26.1605 41.7577V38.4514Z" fill="#3A7CFF"/>
<path fill-rule="evenodd" clip-rule="evenodd" d="M24.2795 4.81372C24.2795 4.53758 24.5034 4.31372 24.7795 4.31372H27.8428C28.07 4.31372 28.2686 4.46688 28.3264 4.68659L31.1812 15.5452C31.3027 16.0072 30.769 16.3601 30.3914 16.0675L24.4733 11.4817C24.3511 11.387 24.2795 11.2411 24.2795 11.0864V4.81372ZM26.5095 6.19754C26.3167 6.19754 26.1605 6.35379 26.1605 6.54653V10.1621C26.1605 10.3168 26.232 10.4627 26.3542 10.5574L27.1623 11.1835C27.5399 11.4761 28.0736 11.1232 27.9521 10.6611L26.847 6.45779C26.8067 6.30444 26.6681 6.19754 26.5095 6.19754V6.19754Z" fill="#3A7CFF"/>
<path fill-rule="evenodd" clip-rule="evenodd" d="M24.2795 1C24.2795 0.447715 24.7273 0 25.2795 0H28.5913C29.1436 0 29.5913 0.447715 29.5913 0.999999V5.19775C29.5913 5.75004 29.1436 6.19775 28.5913 6.19775H25.2795C24.7273 6.19775 24.2795 5.75004 24.2795 5.19775V1ZM26.6605 1.88381C26.3843 1.88381 26.1605 2.10767 26.1605 2.38381V3.81394C26.1605 4.09008 26.3843 4.31394 26.6605 4.31394H27.2104C27.4865 4.31394 27.7104 4.09008 27.7104 3.81394V2.38381C27.7104 2.10767 27.4865 1.88381 27.2104 1.88381H26.6605Z" fill="#3A7CFF"/>
<path fill-rule="evenodd" clip-rule="evenodd" d="M31.7477 20.197C32.0318 20.0308 32.3962 20.1797 32.4826 20.4974L38.0511 40.9688C38.2838 41.8243 38.4017 42.7069 38.4017 43.5935V48.5406C38.4017 49.0929 37.9539 49.5406 37.4017 49.5406H32.4086C32.1325 49.5406 31.9086 49.3167 31.9086 49.0406V42.715C31.9086 42.4625 32.1134 42.2577 32.3659 42.2577V42.2577C32.8308 42.2577 32.9991 41.6448 32.5995 41.4073L25.1195 36.9624C24.3062 36.4858 24.3594 35.3396 25.1294 34.894L25.1332 34.8919L31.6648 31.193C31.9933 31.007 32.005 30.538 31.6863 30.3358L25.0578 26.1298L25.0529 26.1266C24.33 25.6552 24.3029 24.5461 25.1026 24.085L31.7477 20.197ZM33.7849 32.8779C33.7015 32.5607 33.3404 32.4083 33.0549 32.5699L27.8442 35.5208C27.5101 35.71 27.5051 36.1895 27.8351 36.3857L34.9289 40.6011C35.3134 40.8296 35.7816 40.4768 35.6679 40.0442L33.7849 32.8779ZM36.5207 44.6416C36.5207 44.3654 36.2969 44.1416 36.0207 44.1416H34.2896C34.0134 44.1416 33.7896 44.3654 33.7896 44.6416V47.1568C33.7896 47.4329 34.0134 47.6568 34.2896 47.6568H36.0207C36.2969 47.6568 36.5207 47.4329 36.5207 47.1568V44.6416ZM32.3764 27.5176C32.4919 27.9571 32.0086 28.3103 31.625 28.0668L27.7127 25.5843C27.3965 25.3838 27.4049 24.9197 27.728 24.7306L30.5537 23.0774C30.8393 22.9102 31.2056 23.0617 31.2897 23.3818L32.3764 27.5176Z" fill="#3A7CFF"/>
<path fill-rule="evenodd" clip-rule="evenodd" d="M16.6466 42.7577C16.6466 42.4816 16.8705 42.2577 17.1466 42.2577H25.6604C25.9366 42.2577 26.1604 42.4816 26.1604 42.7577V49.0406C26.1604 49.3167 25.9366 49.5406 25.6604 49.5406H17.1466C16.8705 49.5406 16.6466 49.3167 16.6466 49.0406V42.7577ZM19.0276 44.1416C18.7514 44.1416 18.5276 44.3654 18.5276 44.6416V47.1568C18.5276 47.4329 18.7514 47.6568 19.0276 47.6568H23.7795C24.0556 47.6568 24.2795 47.4329 24.2795 47.1568V44.6416C24.2795 44.3654 24.0556 44.1416 23.7795 44.1416H19.0276Z" fill="#3A7CFF"/>
<path fill-rule="evenodd" clip-rule="evenodd" d="M16.6466 48.153C16.6466 47.8769 16.8705 47.653 17.1466 47.653H33.2933C33.5695 47.653 33.7933 47.8769 33.7933 48.153V50.7895C33.7933 51.0044 33.656 51.1953 33.4522 51.2636L25.3789 53.9694C25.2757 54.004 25.1642 54.004 25.0611 53.9694L16.9877 51.2636C16.7839 51.1953 16.6466 51.0044 16.6466 50.7895V48.153ZM18.6766 49.5368C18.5943 49.5368 18.5276 49.6036 18.5276 49.6859V49.6859C18.5276 49.75 18.5685 49.8069 18.6293 49.8273L25.0611 51.9829C25.1642 52.0175 25.2757 52.0175 25.3789 51.9829L31.8107 49.8273C31.8714 49.8069 31.9124 49.75 31.9124 49.6859V49.6859C31.9124 49.6036 31.8456 49.5368 31.7633 49.5368H18.6766Z" fill="#3A7CFF"/>
</svg>
