<svg width="135" height="155" viewBox="0 0 135 155" fill="none" xmlns="http://www.w3.org/2000/svg">
<path d="M31.0008 44.2601L22.8108 38.1101C21.9108 37.4401 20.5708 37.6701 19.7508 38.6401L10.6908 49.4101C9.88077 50.3801 9.87077 51.7201 10.6608 52.4901L18.1008 59.7301C15.5208 64.3901 13.6108 69.4801 12.5208 74.8601L2.31077 75.2401C1.19077 75.2801 0.29077 76.3101 0.27077 77.5801L0.000770194 91.6301C-0.0292298 92.8901 0.82077 93.9401 1.92077 94.0501L12.2608 94.9901C13.3808 101.35 15.6308 107.33 18.8008 112.71L11.4608 119.83C10.6608 120.61 10.6708 121.98 11.5108 122.94L20.7208 133.57C21.5508 134.52 22.8808 134.74 23.7708 134.07L28.5708 130.48V117.36C21.1608 108.87 16.6708 97.7601 16.6708 85.6101C16.6708 64.5701 30.1208 46.6601 48.8908 40.0401L50.4608 34.0801C43.2408 36.1001 36.6508 39.6101 31.0108 44.2501L31.0008 44.2601Z" fill="#1B2539"/>
<path d="M83.6207 34.0901L85.1907 40.0501C103.961 46.6801 117.411 64.5801 117.411 85.6201C117.411 97.7701 112.921 108.88 105.511 117.37V130.49L110.311 134.08C111.201 134.74 112.531 134.53 113.361 133.58L122.571 122.95C123.401 121.99 123.421 120.63 122.621 119.84L115.281 112.72C118.441 107.34 120.691 101.36 121.821 95.0001L132.161 94.0601C133.271 93.9601 134.111 92.9001 134.081 91.6401L133.811 77.5801C133.791 76.3101 132.891 75.2901 131.771 75.2401L121.561 74.8601C120.461 69.4801 118.561 64.3901 115.981 59.7301L123.421 52.4901C124.211 51.7201 124.211 50.3701 123.391 49.4101L114.331 38.6401C113.511 37.6701 112.171 37.4401 111.271 38.1101L103.081 44.2601C97.4407 39.6201 90.8507 36.1201 83.6307 34.0901H83.6207Z" fill="#3A7CFF"/>
<path d="M87.3308 115.16H67.0408V129.49H87.3308V115.16Z" stroke="#3A7CFF" stroke-width="5" stroke-miterlimit="10"/>
<path d="M102.461 140.63H87.3208" stroke="#3A7CFF" stroke-width="5" stroke-miterlimit="10"/>
<path d="M87.3308 134.46V146.82L67.0408 141.25L87.3308 134.46Z" stroke="#3A7CFF" stroke-width="5" stroke-miterlimit="10"/>
<path d="M31.6107 140.63H46.7507" stroke="#3A7CFF" stroke-width="5" stroke-miterlimit="10"/>
<path d="M46.7507 146.82L31.6107 150.78" stroke="#3A7CFF" stroke-width="5" stroke-miterlimit="10"/>
<path d="M102.461 150.78L87.3308 146.82" stroke="#3A7CFF" stroke-width="5" stroke-miterlimit="10"/>
<path d="M66.0307 96.45L36.6207 113.9C36.0207 114.25 36.2707 115.16 36.9707 115.16H46.7507V129.49H34.4907V114.99L49.7407 57.04L66.0707 66.58C66.5107 66.84 66.5207 67.47 66.0907 67.74L44.0407 81.71C43.6107 81.99 43.6207 82.62 44.0707 82.87L66.0107 95.27C66.4607 95.53 66.4707 96.18 66.0207 96.44L66.0307 96.45Z" stroke="#3A7CFF" stroke-width="5" stroke-miterlimit="10"/>
<path d="M67.0408 29.3501V115.16H36.9708C36.2808 115.16 36.0308 114.25 36.6208 113.9L66.0308 96.4501C66.4808 96.1901 66.4708 95.5401 66.0208 95.2801L44.0808 82.8801C43.6308 82.6301 43.6208 81.9901 44.0508 81.7201L66.1008 67.7501C66.5308 67.4701 66.5208 66.8401 66.0808 66.5901L49.7508 57.0501L54.4908 39.0601L67.0408 29.3501Z" stroke="#3A7CFF" stroke-width="5" stroke-miterlimit="10"/>
<path d="M67.0407 14.45V29.35L54.4807 39.0499L60.9607 14.45H67.0407Z" stroke="#3A7CFF" stroke-width="5" stroke-miterlimit="10"/>
<path d="M67.0408 3H57.9208V14.45H67.0408V3Z" stroke="#3A7CFF" stroke-width="5" stroke-miterlimit="10"/>
<path d="M67.0407 141.25L46.7507 146.82V134.46L67.0407 141.25Z" stroke="#3A7CFF" stroke-width="5" stroke-miterlimit="10"/>
<path d="M87.3307 146.82V152.05H46.7507V146.82L67.0407 141.25L87.3307 146.82Z" stroke="#3A7CFF" stroke-width="5" stroke-miterlimit="10"/>
<path d="M97.1108 115.16H67.0408V29.3501L79.5908 39.0601L84.3308 57.0401L68.0008 66.5801C67.5608 66.8401 67.5508 67.4701 67.9808 67.7401L90.0308 81.7101C90.4608 81.9901 90.4408 82.6201 90.0008 82.8701L68.0708 95.2701C67.6208 95.5301 67.6108 96.1801 68.0608 96.4401L97.4708 113.89C98.0708 114.24 97.8208 115.15 97.1208 115.15L97.1108 115.16Z" stroke="#3A7CFF" stroke-width="5" stroke-miterlimit="10"/>
<path d="M79.5908 39.06L67.0408 29.35V14.45H73.1108L79.5908 39.06Z" stroke="#3A7CFF" stroke-width="5" stroke-miterlimit="10"/>
<path d="M76.1608 3H67.0408V14.45H76.1608V3Z" stroke="#3A7CFF" stroke-width="5" stroke-miterlimit="10"/>
<path d="M99.5808 114.99V129.49H87.3208V115.16H97.1008C97.7908 115.16 98.0408 114.25 97.4508 113.9L68.0408 96.45C67.5908 96.19 67.6008 95.54 68.0508 95.28L89.9808 82.88C90.4308 82.63 90.4508 81.9901 90.0108 81.7201L67.9608 67.75C67.5308 67.47 67.5408 66.84 67.9808 66.59L84.3108 57.05L99.5608 115L99.5808 114.99Z" stroke="#3A7CFF" stroke-width="5" stroke-miterlimit="10"/>
<path d="M67.0407 115.16H46.7507V129.49H67.0407V115.16Z" stroke="#3A7CFF" stroke-width="5" stroke-miterlimit="10"/>
<path d="M87.3307 129.48V134.46L67.0407 141.25L46.7507 134.46V129.48H87.3307Z" stroke="#3A7CFF" stroke-width="5" stroke-miterlimit="10"/>
</svg>
